<svg xmlns="http://www.w3.org/2000/svg" xmlns:xlink="http://www.w3.org/1999/xlink" viewBox="0 0 16.1 8.8">
	<defs>
		<style>
			.cls-1{fill:url(#linear-gradient);}
		</style>
		<linearGradient id="linear-gradient" y1="8.8" x2="14" y2="8.8" gradientTransform="matrix(1, 0, 0, -1, 0, 13.2)" gradientUnits="userSpaceOnUse">
			<stop offset="0" stop-color="#000092" />
			<stop offset="1" stop-color="#ff00f3" />
		</linearGradient>
	</defs>
	<title>
		Asset 2
	</title>
	<g id="Layer_2" data-name="Layer 2">
		<g id="Layer_1-2" data-name="Layer 1">
			<path class="cls-1" d="M8,0A1.54,1.54,0,0,0,6.5,1.5a1.35,1.35,0,0,0,0,.18,6.5,6.5,0,0,0-5,6.12H.6a.56.56,0,0,0-.6.5.56.56,0,0,0,.6.5H15.4c.3,0,.7-.2.7-.5a.56.56,0,0,0-.6-.5h-1a6.5,6.5,0,0,0-5-6.12,1,1,0,0,0,0-.18A1.54,1.54,0,0,0,8,0ZM8,1a.47.47,0,0,1,.5.5v0a4.18,4.18,0,0,0-1,0v0A.47.47,0,0,1,8,1ZM8,2.5a5.51,5.51,0,0,1,5.49,5.3h-11A5.51,5.51,0,0,1,8,2.5Zm-.89.78a.39.39,0,0,0-.21,0A4.88,4.88,0,0,0,3.3,6.9a.55.55,0,0,0,.4.6h.1a.43.43,0,0,0,.4-.4,4.19,4.19,0,0,1,3-2.9.49.49,0,0,0,.3-.6A.53.53,0,0,0,7.11,3.28Z" />
		</g>
	</g>
</svg>
